<?xml version="1.0" encoding="UTF-8"?>
<svg version="1.1" xmlns="http://www.w3.org/2000/svg" width="96" height="96">
<path d="M0 0 C1.23768127 -0.0030011 2.47536255 -0.0060022 3.75054932 -0.00909424 C5.09119081 0.00290773 6.43182807 0.01539052 7.77246094 0.02832031 C9.15297235 0.03137995 10.53348686 0.03325451 11.91400146 0.03399658 C14.79890867 0.03858798 17.6835349 0.05297378 20.56835938 0.07519531 C24.27307238 0.10358314 27.97756541 0.11441863 31.68237686 0.11887741 C34.52872938 0.12302412 37.37503714 0.13283356 40.22136688 0.1447525 C41.58816926 0.1504619 42.95497595 0.15521838 44.32178497 0.15901947 C46.22496614 0.16586103 48.12811507 0.1803873 50.03125 0.1953125 C51.1153717 0.2021405 52.19949341 0.20896851 53.31646729 0.21600342 C55.75683594 0.35644531 55.75683594 0.35644531 56.75683594 1.35644531 C57.34450229 7.93830846 56.1130409 12.65743495 52.75683594 18.35644531 C48.49766178 23.38008662 44.27069851 26.33517699 37.75683594 27.35644531 C35.6995032 27.43550157 33.63988081 27.46424356 31.58105469 27.45410156 C30.42412109 27.45087891 29.2671875 27.44765625 28.07519531 27.44433594 C26.87701172 27.43595703 25.67882812 27.42757813 24.44433594 27.41894531 C23.22681641 27.41443359 22.00929687 27.40992187 20.75488281 27.40527344 C17.75548368 27.39351109 14.75618505 27.37707357 11.75683594 27.35644531 C11.75683594 29.33644531 11.75683594 31.31644531 11.75683594 33.35644531 C13.33150635 33.34859009 13.33150635 33.34859009 14.93798828 33.34057617 C18.82551219 33.32250293 22.71303237 33.31100477 26.60058594 33.30151367 C28.28451156 33.29647879 29.96843279 33.2896505 31.65234375 33.28100586 C34.06999797 33.26890335 36.4875945 33.26320863 38.90527344 33.25878906 C39.66053314 33.25362778 40.41579285 33.24846649 41.19393921 33.2431488 C46.52909252 33.24257361 46.52909252 33.24257361 48.75683594 34.35644531 C49.12352606 41.44578762 48.19280457 45.44681611 43.50683594 51.04394531 C36.80238431 56.68177963 30.75627963 56.75802521 22.31933594 56.54394531 C21.30162109 56.53041016 20.28390625 56.516875 19.23535156 56.50292969 C16.7419538 56.46781141 14.24968081 56.4186309 11.75683594 56.35644531 C11.80324219 57.27941406 11.84964844 58.20238281 11.89746094 59.15332031 C11.70157197 63.61523568 9.85524575 65.2580355 6.75683594 68.35644531 C3.57121754 70.36345225 1.27537499 70.40826542 -2.43066406 70.48144531 C-12.54903605 71.9180043 -19.49370814 81.34306033 -26.24316406 88.35644531 C-27.24076006 89.35884355 -28.2399052 90.35971483 -29.24316406 91.35644531 C-28.26734375 91.39382812 -27.29152344 91.43121094 -26.28613281 91.46972656 C-25.01382812 91.53546875 -23.74152344 91.60121094 -22.43066406 91.66894531 C-21.16609375 91.72695312 -19.90152344 91.78496094 -18.59863281 91.84472656 C-15.24316406 92.35644531 -15.24316406 92.35644531 -13.29394531 93.89941406 C-12.9471875 94.38023438 -12.60042969 94.86105469 -12.24316406 95.35644531 C-15.74309102 96.153513 -18.95738716 96.47507559 -22.54394531 96.45410156 C-23.52041016 96.45087891 -24.496875 96.44765625 -25.50292969 96.44433594 C-26.51033203 96.43595703 -27.51773437 96.42757812 -28.55566406 96.41894531 C-29.58240234 96.41443359 -30.60914063 96.40992187 -31.66699219 96.40527344 C-34.19244289 96.39352716 -36.71777311 96.37710096 -39.24316406 96.35644531 C-39.33599453 87.98517928 -39.40699457 79.61412962 -39.45041275 71.24247551 C-39.47125526 67.35482428 -39.49951087 63.46752616 -39.54492188 59.58007812 C-39.58850025 55.82586337 -39.61232626 52.07198746 -39.62267303 48.31753922 C-39.63004305 46.88782546 -39.6444352 45.45812948 -39.66608429 44.02856064 C-39.69527167 42.0206905 -39.69679926 40.01247675 -39.69726562 38.00439453 C-39.70614807 36.86300018 -39.71503052 35.72160583 -39.72418213 34.54562378 C-38.90252841 29.0980106 -35.58571194 25.383485 -31.63378906 21.73535156 C-30.62445312 20.7965918 -30.62445312 20.7965918 -29.59472656 19.83886719 C-28.90121094 19.20529297 -28.20769531 18.57171875 -27.49316406 17.91894531 C-26.81511719 17.28923828 -26.13707031 16.65953125 -25.43847656 16.01074219 C-23.38560513 14.11203125 -21.31819304 12.23090117 -19.24316406 10.35644531 C-18.54255859 9.72077637 -17.84195312 9.08510742 -17.12011719 8.43017578 C-16.43369141 7.81674316 -15.74726563 7.20331055 -15.04003906 6.57128906 C-14.42999023 6.024646 -13.81994141 5.47800293 -13.19140625 4.91479492 C-8.77151737 1.37943769 -5.71969687 -0.01917761 0 0 Z " fill="#FBF8FB" transform="translate(39.2431640625,-0.3564453125)"/>
<path d="M0 0 C0.02887236 3.81248426 0.04675492 7.6249407 0.0625 11.4375 C0.07087891 12.52611328 0.07925781 13.61472656 0.08789062 14.73632812 C0.09272461 16.28803711 0.09272461 16.28803711 0.09765625 17.87109375 C0.10551147 19.30859985 0.10551147 19.30859985 0.11352539 20.77514648 C0 23 0 23 -1 24 C-4.73790631 24.17024877 -8.46949291 24.29725587 -12.2109375 24.34179688 C-17.3743298 24.5225997 -20.26769732 25.08402101 -24 29 C-25.50606515 32.01213029 -25.12160331 35.11282622 -25.09765625 38.4140625 C-25.0962413 39.14370209 -25.09482635 39.87334167 -25.09336853 40.62509155 C-25.08776531 42.95843585 -25.07521235 45.29168464 -25.0625 47.625 C-25.05748541 49.20572778 -25.05292243 50.78645707 -25.04882812 52.3671875 C-25.03864517 56.24485818 -25.01907055 60.12232202 -25 64 C-20.71 59.05 -16.42 54.1 -12 49 C-8 50 -8 50 -4 53 C-1.03 49.37 1.94 45.74 5 42 C10.41113836 43.08222767 11.97833441 44.60828671 15.3125 48.5625 C16.859375 50.356875 18.40625 52.15125 20 54 C20.33 46.08 20.66 38.16 21 30 C26.09038804 29.97707032 31.18059759 29.95714924 36.27099609 29.94506836 C38.00342414 29.94003318 39.73584792 29.93320468 41.46826172 29.92456055 C43.95541433 29.91245935 46.44251087 29.90676362 48.9296875 29.90234375 C49.70682098 29.89718246 50.48395447 29.89202118 51.28463745 29.88670349 C56.77225659 29.88612829 56.77225659 29.88612829 59 31 C59.36669012 38.08934231 58.43596864 42.09037079 53.75 47.6875 C47.04554838 53.32533432 40.9994437 53.4015799 32.5625 53.1875 C31.54478516 53.17396484 30.52707031 53.16042969 29.47851562 53.14648438 C26.98511786 53.1113661 24.49284488 53.06218559 22 53 C22.04640625 53.92296875 22.0928125 54.8459375 22.140625 55.796875 C21.94473603 60.25879037 20.09840981 61.90159019 17 65 C13.81438161 67.00700694 11.51853905 67.0518201 7.8125 67.125 C-2.30587199 68.56155899 -9.25054408 77.98661502 -16 85 C-16.99759599 86.00239824 -17.99674114 87.00326952 -19 88 C-18.02417969 88.03738281 -17.04835938 88.07476562 -16.04296875 88.11328125 C-14.77066406 88.17902344 -13.49835937 88.24476562 -12.1875 88.3125 C-10.92292969 88.37050781 -9.65835937 88.42851563 -8.35546875 88.48828125 C-5 89 -5 89 -3.05078125 90.54296875 C-2.70402344 91.02378906 -2.35726563 91.50460938 -2 92 C-5.49992696 92.79706768 -8.7142231 93.11863027 -12.30078125 93.09765625 C-13.27724609 93.09443359 -14.25371094 93.09121094 -15.25976562 93.08789062 C-16.26716797 93.07951172 -17.27457031 93.07113281 -18.3125 93.0625 C-19.33923828 93.05798828 -20.36597656 93.05347656 -21.42382812 93.04882812 C-23.94927882 93.03708184 -26.47460905 93.02065565 -29 93 C-29.09283046 84.62873397 -29.16383051 76.25768431 -29.20724869 67.8860302 C-29.2280912 63.99837897 -29.25634681 60.11108085 -29.30175781 56.22363281 C-29.34533619 52.46941805 -29.36916219 48.71554214 -29.37950897 44.9610939 C-29.38687898 43.53138014 -29.40127114 42.10168417 -29.42292023 40.67211533 C-29.4521076 38.66424519 -29.4536352 36.65603143 -29.45410156 34.64794922 C-29.46298401 33.50655487 -29.47186646 32.36516052 -29.48101807 31.18917847 C-28.65936434 25.74156528 -25.34254787 22.02703968 -21.390625 18.37890625 C-20.38128906 17.44014648 -20.38128906 17.44014648 -19.3515625 16.48242188 C-18.65804688 15.84884766 -17.96453125 15.21527344 -17.25 14.5625 C-16.57195313 13.93279297 -15.89390625 13.30308594 -15.1953125 12.65429688 C-1.51358556 0 -1.51358556 0 0 0 Z " fill="#554EEC" transform="translate(29,3)"/>
<path d="M0 0 C1.23775681 -0.00307663 2.47551361 -0.00615326 3.7507782 -0.00932312 C5.09663073 -0.00242699 6.4424814 0.00483986 7.78833008 0.01245117 C9.17027239 0.01364364 10.55221552 0.01409599 11.93415833 0.01383972 C14.82497253 0.01540157 17.71566237 0.0236708 20.60644531 0.03710938 C24.31902738 0.05414659 28.03147349 0.0579222 31.74409008 0.05716419 C34.5947246 0.05743548 37.44532917 0.06290917 40.29595375 0.07016563 C41.66554856 0.07335524 43.03514678 0.07532039 44.4047451 0.07605934 C46.31281118 0.07821709 48.22086469 0.08774579 50.12890625 0.09765625 C51.21604416 0.10146805 52.30318207 0.10527985 53.42326355 0.10920715 C55.87036133 0.24291992 55.87036133 0.24291992 56.87036133 1.24291992 C57.45802768 7.82478307 56.22656629 12.54390955 52.87036133 18.24291992 C48.6014405 23.27805731 44.38719808 26.19766814 37.87036133 27.24291992 C33.33160727 27.53486062 28.79244316 27.56559994 24.24536133 27.61791992 C23.0052832 27.65530273 21.76520508 27.69268555 20.48754883 27.73120117 C18.70864258 27.74860352 18.70864258 27.74860352 16.89379883 27.76635742 C15.26837158 27.79608643 15.26837158 27.79608643 13.61010742 27.82641602 C10.87036133 27.24291992 10.87036133 27.24291992 9.13134766 24.86206055 C8.71522217 23.99774414 8.29909668 23.13342773 7.87036133 22.24291992 C6.35754544 20.57156738 4.79074 18.94803303 3.18286133 17.36791992 C2.30500977 16.50295898 1.4271582 15.63799805 0.52270508 14.74682617 C-2.45754913 11.93336086 -5.53819331 9.2838651 -8.73120117 6.71557617 C-10.12963867 5.24291992 -10.12963867 5.24291992 -10.12963867 2.24291992 C-6.68660186 0.14584033 -3.9956597 -0.00522603 0 0 Z " fill="#FD9905" transform="translate(39.129638671875,-0.242919921875)"/>
<path d="M0 0 C0.02887236 3.81248426 0.04675492 7.6249407 0.0625 11.4375 C0.07087891 12.52611328 0.07925781 13.61472656 0.08789062 14.73632812 C0.09272461 16.28803711 0.09272461 16.28803711 0.09765625 17.87109375 C0.10551147 19.30859985 0.10551147 19.30859985 0.11352539 20.77514648 C0 23 0 23 -1 24 C-4.73790631 24.17024877 -8.46949291 24.29725587 -12.2109375 24.34179688 C-17.3743298 24.5225997 -20.26769732 25.08402101 -24 29 C-25.55495698 32.10991396 -25.24076956 35.43344049 -25.31640625 38.8515625 C-25.33718735 39.62559418 -25.35796844 40.39962585 -25.37937927 41.19711304 C-25.44483448 43.67298392 -25.50374087 46.14896202 -25.5625 48.625 C-25.60568907 50.30209448 -25.64930348 51.97917807 -25.69335938 53.65625 C-25.80051171 57.77072308 -25.90179045 61.88530414 -26 66 C-24.515 65.505 -24.515 65.505 -23 65 C-23 65.66 -23 66.32 -23 67 C-22.236875 66.67 -21.47375 66.34 -20.6875 66 C-10.13303061 63.13777101 2.16929831 65.3714826 13 66 C13 66.33 13 66.66 13 67 C12.33097656 66.95875 11.66195312 66.9175 10.97265625 66.875 C-1.14404108 67.39544874 -8.08249586 76.77289173 -16 85 C-16.99759599 86.00239824 -17.99674114 87.00326952 -19 88 C-18.02417969 88.03738281 -17.04835938 88.07476562 -16.04296875 88.11328125 C-14.77066406 88.17902344 -13.49835937 88.24476562 -12.1875 88.3125 C-10.92292969 88.37050781 -9.65835937 88.42851563 -8.35546875 88.48828125 C-5 89 -5 89 -3.05078125 90.54296875 C-2.70402344 91.02378906 -2.35726563 91.50460938 -2 92 C-5.49992696 92.79706768 -8.7142231 93.11863027 -12.30078125 93.09765625 C-13.27724609 93.09443359 -14.25371094 93.09121094 -15.25976562 93.08789062 C-16.26716797 93.07951172 -17.27457031 93.07113281 -18.3125 93.0625 C-19.33923828 93.05798828 -20.36597656 93.05347656 -21.42382812 93.04882812 C-23.94927882 93.03708184 -26.47460905 93.02065565 -29 93 C-29.09283046 84.62873397 -29.16383051 76.25768431 -29.20724869 67.8860302 C-29.2280912 63.99837897 -29.25634681 60.11108085 -29.30175781 56.22363281 C-29.34533619 52.46941805 -29.36916219 48.71554214 -29.37950897 44.9610939 C-29.38687898 43.53138014 -29.40127114 42.10168417 -29.42292023 40.67211533 C-29.4521076 38.66424519 -29.4536352 36.65603143 -29.45410156 34.64794922 C-29.46298401 33.50655487 -29.47186646 32.36516052 -29.48101807 31.18917847 C-28.65936434 25.74156528 -25.34254787 22.02703968 -21.390625 18.37890625 C-20.38128906 17.44014648 -20.38128906 17.44014648 -19.3515625 16.48242188 C-18.65804688 15.84884766 -17.96453125 15.21527344 -17.25 14.5625 C-16.57195313 13.93279297 -15.89390625 13.30308594 -15.1953125 12.65429688 C-1.51358556 0 -1.51358556 0 0 0 Z " fill="#271897" transform="translate(29,3)"/>
<path d="M0 0 C4.45831982 -0.02891546 8.91661569 -0.04676981 13.375 -0.0625 C14.64601563 -0.07087891 15.91703125 -0.07925781 17.2265625 -0.08789062 C19.04414062 -0.09272461 19.04414062 -0.09272461 20.8984375 -0.09765625 C22.57945557 -0.10551147 22.57945557 -0.10551147 24.29443359 -0.11352539 C27 0 27 0 29 1 C29.2910618 6.62719476 29.144094 10.12123345 26 15 C23.375 17.8125 23.375 17.8125 21 20 C20.67 20.33 20.34 20.66 20 21 C17.62676622 21.10061091 15.25036092 21.12964846 12.875 21.125 C11.57304688 21.12757812 10.27109375 21.13015625 8.9296875 21.1328125 C5.17677559 21.00597452 1.69676878 20.6049258 -2 20 C-2.34179688 16.97265625 -2.34179688 16.97265625 -2.68359375 13.9453125 C-2.91292961 11.92595684 -2.91292961 11.92595684 -4 10 C-3.22265625 7.6171875 -3.22265625 7.6171875 -2.0625 4.875 C-1.68222656 3.96492188 -1.30195312 3.05484375 -0.91015625 2.1171875 C-0.60980469 1.41851562 -0.30945312 0.71984375 0 0 Z " fill="#238FFA" transform="translate(59,33)"/>
<path d="M0 0 C0.33 0 0.66 0 1 0 C1.33 3.96 1.66 7.92 2 12 C2.66 11.01 3.32 10.02 4 9 C3.85930804 11.12534659 3.71229079 13.25027529 3.5625 15.375 C3.48128906 16.55835937 3.40007813 17.74171875 3.31640625 18.9609375 C3 22 3 22 2 24 C0.14453125 24.6328125 0.14453125 24.6328125 -2.1875 25.125 C-3.40953125 25.38603516 -3.40953125 25.38603516 -4.65625 25.65234375 C-7 26 -7 26 -10.1875 25.6875 C-14.10162603 26.12240289 -15.30179715 27.83130065 -17.73657227 30.79663086 C-20.04986662 34.83092681 -19.62903594 38.91370612 -19.375 43.4375 C-19.34792969 44.35982422 -19.32085938 45.28214844 -19.29296875 46.23242188 C-19.22276119 48.4907652 -19.12452894 50.74411037 -19 53 C-18.34 53.33 -17.68 53.66 -17 54 C-18.30911878 55.50295185 -19.62238392 57.00229311 -20.9375 58.5 C-21.66839844 59.3353125 -22.39929688 60.170625 -23.15234375 61.03125 C-23.76207031 61.6809375 -24.37179688 62.330625 -25 63 C-25.33 63 -25.66 63 -26 63 C-26.12408851 58.26783707 -26.21456516 53.53663168 -26.2746582 48.80322266 C-26.29972128 47.19498182 -26.33378171 45.58685398 -26.37719727 43.97900391 C-26.43821848 41.66019761 -26.46628963 39.34290335 -26.48828125 37.0234375 C-26.51408768 36.31069672 -26.5398941 35.59795593 -26.56648254 34.86361694 C-26.56864631 30.96611912 -26.00968761 28.54390754 -23.59448242 25.56103516 C-20.4647014 22.4716023 -19.09620299 21.89206634 -14.8671875 21.68359375 C-13.77833252 21.62643188 -13.77833252 21.62643188 -12.66748047 21.56811523 C-11.74596191 21.52501221 -10.82444336 21.48190918 -9.875 21.4375 C-6.94625 21.293125 -4.0175 21.14875 -1 21 C-0.67 14.07 -0.34 7.14 0 0 Z " fill="#D9CDF2" transform="translate(29,5)"/>
<path d="M0 0 C0.02887236 3.81248426 0.04675492 7.6249407 0.0625 11.4375 C0.07087891 12.52611328 0.07925781 13.61472656 0.08789062 14.73632812 C0.09272461 16.28803711 0.09272461 16.28803711 0.09765625 17.87109375 C0.10551147 19.30859985 0.10551147 19.30859985 0.11352539 20.77514648 C0 23 0 23 -1 24 C-4.73790631 24.17024877 -8.46949291 24.29725587 -12.2109375 24.34179688 C-17.4111425 24.52388874 -20.19649799 25.13117066 -24 29 C-24.66 29.66 -25.32 30.32 -26 31 C-26.83452582 24.20457549 -26.83452582 24.20457549 -24.72265625 21.15625 C-22.89032006 19.32806877 -20.98929016 17.65584724 -19 16 C-17.72871891 14.875506 -16.45789116 13.7504993 -15.1875 12.625 C-14.53007812 12.05910156 -13.87265625 11.49320313 -13.1953125 10.91015625 C-9.7443077 7.90741364 -6.37951229 4.80966086 -3.00390625 1.72265625 C-1 0 -1 0 0 0 Z " fill="#8A19CF" transform="translate(29,3)"/>
<path d="M0 0 C3.2631415 0.57277379 4.78445299 1.44415201 6.98046875 3.90625 C7.50447266 4.48503906 8.02847656 5.06382813 8.56835938 5.66015625 C9.36983398 6.57087891 9.36983398 6.57087891 10.1875 7.5 C10.73341797 8.10714844 11.27933594 8.71429688 11.84179688 9.33984375 C13.23335205 10.8883153 14.61726926 12.44364347 16 14 C17.05978933 15.28612676 17.05978933 15.28612676 19.50390625 15.09765625 C20.51324219 15.08605469 21.52257813 15.07445313 22.5625 15.0625 C23.57441406 15.05347656 24.58632813 15.04445313 25.62890625 15.03515625 C26.41136719 15.02355469 27.19382813 15.01195313 28 15 C28 14.34 28 13.68 28 13 C28.66 13 29.32 13 30 13 C30 12.34 30 11.68 30 11 C30.66 11 31.32 11 32 11 C32 9.68 32 8.36 32 7 C32.66 7 33.32 7 34 7 C33.78701501 10.72723731 33.06737726 11.9312275 30.40625 14.64746094 C26.89412683 17.43844692 24.1211298 17.56826423 19.625 17.453125 C18.93744629 17.44367859 18.24989258 17.43423218 17.54150391 17.42449951 C15.35975625 17.39013884 13.18081786 17.32147056 11 17.25 C8.81956628 17.19978629 6.63916806 17.15677501 4.45849609 17.11834717 C2.4798587 17.08014931 0.50160282 17.02350008 -1.4765625 16.96582031 C-4.97824511 16.89607898 -4.97824511 16.89607898 -8.2734375 17.62011719 C-11 18 -11 18 -14 16 C-13.40832031 15.34773438 -12.81664062 14.69546875 -12.20703125 14.0234375 C-8.04481368 9.41987549 -3.92330844 4.8092168 0 0 Z " fill="#3A30CB" transform="translate(17,52)"/>
<path d="M0 0 C2.97 0 5.94 0 9 0 C8.07671407 3.69314372 7.05496286 7.34279543 6 11 C6.33 11.33 6.66 11.66 7 12 C7 14.64 7 17.28 7 20 C13.6 20.33 20.2 20.66 27 21 C23.08780231 22.95609885 21.74717824 23.24163531 17.578125 23.1953125 C16.65418945 23.19031738 15.73025391 23.18532227 14.77832031 23.18017578 C13.03180176 23.15286377 13.03180176 23.15286377 11.25 23.125 C7.5375 23.08375 3.825 23.0425 0 23 C0 15.41 0 7.82 0 0 Z " fill="#253DCE" transform="translate(50,33)"/>
<path d="M0 0 C2.0625 0.6875 2.0625 0.6875 4 2 C4.33333333 3.33333333 4.66666667 4.66666667 5 6 C6.9837767 7.28436734 6.9837767 7.28436734 9 8 C9 8.66 9 9.32 9 10 C9.804375 10.268125 10.60875 10.53625 11.4375 10.8125 C12.283125 11.204375 13.12875 11.59625 14 12 C14.33 12.99 14.66 13.98 15 15 C15.99 15.33 16.98 15.66 18 16 C18 16.66 18 17.32 18 18 C18.969375 18.2475 19.93875 18.495 20.9375 18.75 C21.948125 19.1625 22.95875 19.575 24 20 C24.33 21.32 24.66 22.64 25 24 C33.58 24 42.16 24 51 24 C51 24.33 51 24.66 51 25 C44.83306815 26.41346364 38.67460025 26.30251506 32.375 26.375 C31.13492188 26.41238281 29.89484375 26.44976563 28.6171875 26.48828125 C26.83828125 26.50568359 26.83828125 26.50568359 25.0234375 26.5234375 C23.39801025 26.5531665 23.39801025 26.5531665 21.73974609 26.58349609 C19 26 19 26 17.26098633 23.61914062 C16.84486084 22.75482422 16.42873535 21.89050781 16 21 C14.48718411 19.32864745 12.92037867 17.70511311 11.3125 16.125 C10.43464844 15.26003906 9.55679688 14.39507812 8.65234375 13.50390625 C5.67208954 10.69044094 2.59144536 8.04094518 -0.6015625 5.47265625 C-2 4 -2 4 -2 1 C-1.34 0.67 -0.68 0.34 0 0 Z " fill="#E55D1E" transform="translate(31,1)"/>
<path d="M0 0 C1.5625 1.25 1.5625 1.25 3 3 C2.6875 5.1875 2.6875 5.1875 2 7 C2.66 7 3.32 7 4 7 C4 7.99 4 8.98 4 10 C4.66 10.33 5.32 10.66 6 11 C5.00419922 11.03867187 5.00419922 11.03867187 3.98828125 11.078125 C-1.56100642 11.4345756 -4.96228622 11.83610767 -9 16 C-9.66 16.66 -10.32 17.32 -11 18 C-11.83837176 11.17325855 -11.83837176 11.17325855 -9.58203125 8.015625 C-6.62480369 5.06470283 -3.45844055 2.35173958 0 0 Z " fill="#4F20D2" transform="translate(14,16)"/>
<path d="M0 0 C-0.93590504 1.1055189 -1.87379858 2.20935453 -2.8125 3.3125 C-3.59560547 4.23482422 -3.59560547 4.23482422 -4.39453125 5.17578125 C-6 7 -6 7 -7.57421875 8.41796875 C-11.65121957 12.94176418 -11.30587265 18.26374096 -11.25 24 C-11.25773438 24.7940625 -11.26546875 25.588125 -11.2734375 26.40625 C-11.25906255 30.71873638 -10.99604008 34.07128619 -9 38 C-10.32 38.99 -11.64 39.98 -13 41 C-13.12408851 36.26783707 -13.21456516 31.53663168 -13.2746582 26.80322266 C-13.29972128 25.19498182 -13.33378171 23.58685398 -13.37719727 21.97900391 C-13.43821848 19.66019761 -13.46628963 17.34290335 -13.48828125 15.0234375 C-13.51408768 14.31069672 -13.5398941 13.59795593 -13.56648254 12.86361694 C-13.56864631 8.96611912 -13.00968761 6.54390754 -10.59448242 3.56103516 C-6.87005098 -0.11538207 -5.12452468 -0.11140271 0 0 Z " fill="#B8ADEA" transform="translate(16,27)"/>
<path d="M0 0 C0.02693575 2.12493141 0.04636628 4.24995912 0.0625 6.375 C0.07410156 7.55835938 0.08570313 8.74171875 0.09765625 9.9609375 C0 13 0 13 -1 15 C-4.3 14.34 -7.6 13.68 -11 13 C-10.34 11.68 -9.68 10.36 -9 9 C-8.34 9 -7.68 9 -7 9 C-6.938125 8.443125 -6.87625 7.88625 -6.8125 7.3125 C-5.89624281 4.70469109 -3.12955168 0 0 0 Z " fill="#AD1CD8" transform="translate(29,3)"/>
<path d="M0 0 C3 0.25 3 0.25 5 2.25 C5.3125 5.25 5.3125 5.25 5 8.25 C2 10.25 2 10.25 -1.1875 9.875 C-2.5796875 9.565625 -2.5796875 9.565625 -4 9.25 C-4.625 5.875 -4.625 5.875 -5 2.25 C-3 0.25 -3 0.25 0 0 Z " fill="#FEA602" transform="translate(20,36.75)"/>
<path d="M0 0 C0.72896484 -0.020625 1.45792969 -0.04125 2.20898438 -0.0625 C7.59708545 -0.10200945 7.59708545 -0.10200945 10.06640625 1.765625 C10.39511719 2.25546875 10.72382813 2.7453125 11.0625 3.25 C7.63676063 4.02528479 4.49010755 4.36918778 0.98046875 4.34765625 C0.04912109 4.34443359 -0.88222656 4.34121094 -1.84179688 4.33789062 C-2.80150391 4.32951172 -3.76121094 4.32113281 -4.75 4.3125 C-6.21856445 4.30573242 -6.21856445 4.30573242 -7.71679688 4.29882812 C-10.12376111 4.28708684 -12.53059857 4.27066419 -14.9375 4.25 C-14.9375 3.92 -14.9375 3.59 -14.9375 3.25 C-13.2875 3.25 -11.6375 3.25 -9.9375 3.25 C-9.9375 2.59 -9.9375 1.93 -9.9375 1.25 C-6.79239907 -0.32255046 -3.44984555 0.02427332 0 0 Z " fill="#494B88" transform="translate(15.9375,91.75)"/>
<path d="M0 0 C1.98 0 3.96 0 6 0 C6.33 0.99 6.66 1.98 7 3 C15.58 3 24.16 3 33 3 C33 3.33 33 3.66 33 4 C29.13792926 4.90816798 25.56851344 5.11643845 21.60546875 5.09765625 C20.40341797 5.09443359 19.20136719 5.09121094 17.96289062 5.08789062 C16.71701172 5.07951172 15.47113281 5.07113281 14.1875 5.0625 C12.92228516 5.05798828 11.65707031 5.05347656 10.35351562 5.04882812 C7.2356289 5.03706251 4.11783867 5.02062272 1 5 C0.67 3.35 0.34 1.7 0 0 Z " fill="#D7540D" transform="translate(49,22)"/>
<path d="M0 0 C0.33 0 0.66 0 1 0 C1.33 4.62 1.66 9.24 2 14 C2.66 14 3.32 14 4 14 C4.33 15.98 4.66 17.96 5 20 C3.68 20.99 2.36 21.98 1 23 C-0.64943584 20.1019449 -1.24927937 18.03429783 -1.23046875 14.70703125 C-1.22853516 13.91232422 -1.22660156 13.11761719 -1.22460938 12.29882812 C-1.21236328 11.47833984 -1.20011719 10.65785156 -1.1875 9.8125 C-1.18685547 8.98041016 -1.18621094 8.14832031 -1.18554688 7.29101562 C-1.14043257 1.14043257 -1.14043257 1.14043257 0 0 Z " fill="#CCC7F1" transform="translate(5,41)"/>
<path d="M0 0 C0.33 0 0.66 0 1 0 C1.33 3.96 1.66 7.92 2 12 C2.66 11.01 3.32 10.02 4 9 C3.85930804 11.12534659 3.71229079 13.25027529 3.5625 15.375 C3.48128906 16.55835937 3.40007813 17.74171875 3.31640625 18.9609375 C3 22 3 22 2 24 C-0.06640625 24.6328125 -0.06640625 24.6328125 -2.5625 25.125 C-3.38878906 25.29257812 -4.21507812 25.46015625 -5.06640625 25.6328125 C-5.70449219 25.75398438 -6.34257812 25.87515625 -7 26 C-7.33 25.34 -7.66 24.68 -8 24 C-5.69 23.01 -3.38 22.02 -1 21 C-0.67 14.07 -0.34 7.14 0 0 Z " fill="#EAD0EC" transform="translate(29,5)"/>
<path d="M0 0 C-5 5 -5 5 -6.6015625 6.3203125 C-8.52547392 8.63115582 -8.65720208 10.6073666 -9.0625 13.5625 C-9.79166667 18.79166667 -9.79166667 18.79166667 -12 21 C-13.0547558 10.01714598 -13.0547558 10.01714598 -10.6171875 5.35546875 C-7.24845083 1.30860977 -5.44683814 -0.47977331 0 0 Z " fill="#EEEAF9" transform="translate(21,30)"/>
<path d="M0 0 C0.33 0 0.66 0 1 0 C1.02688151 1.64574566 1.04634123 3.29161413 1.0625 4.9375 C1.07410156 5.85402344 1.08570313 6.77054688 1.09765625 7.71484375 C1 10 1 10 0 11 C-5.73611111 11.27314815 -5.73611111 11.27314815 -8 11 C-8.66 10.34 -9.32 9.68 -10 9 C-9.21625 8.773125 -8.4325 8.54625 -7.625 8.3125 C-4.78125 7.21875 -4.78125 7.21875 -3.6875 4.375 C-3.460625 3.59125 -3.23375 2.8075 -3 2 C-2.01 2 -1.02 2 0 2 C0 1.34 0 0.68 0 0 Z " fill="#831AA4" transform="translate(28,16)"/>
<path d="M0 0 C0.66 0.33 1.32 0.66 2 1 C1.18144531 1.77601562 0.36289063 2.55203125 -0.48046875 3.3515625 C-4.06354362 7.65125234 -3.56077013 12.02000432 -3.3125 17.375 C-3.28994141 18.30183594 -3.26738281 19.22867188 -3.24414062 20.18359375 C-3.18553677 22.45742335 -3.1035693 24.72784886 -3 27 C-2.34 27.33 -1.68 27.66 -1 28 C-1.99 28.33 -2.98 28.66 -4 29 C-4 27.35 -4 25.7 -4 24 C-4.66 24 -5.32 24 -6 24 C-6.92017937 8.85112108 -6.92017937 8.85112108 -4.6640625 4.3125 C-3 2.4375 -3 2.4375 0 0 Z " fill="#DED9F5" transform="translate(13,31)"/>
<path d="M0 0 C0.99 0.99 1.98 1.98 3 3 C2.6875 5.1875 2.6875 5.1875 2 7 C1.34 7 0.68 7 0 7 C0 7.66 0 8.32 0 9 C-1.98 9.33 -3.96 9.66 -6 10 C-6.33 8.68 -6.66 7.36 -7 6 C-4.69 4.02 -2.38 2.04 0 0 Z " fill="#6818D7" transform="translate(14,16)"/>
<path d="M0 0 C1.32 0 2.64 0 4 0 C3.11223998 3.69900008 2.05418136 7.34550461 1 11 C1.33 11.33 1.66 11.66 2 12 C2.04092937 14.33297433 2.04241723 16.66705225 2 19 C1.34 19 0.68 19 0 19 C-1.18403115 15.26936216 -1.13306789 11.70525834 -1.125 7.8125 C-1.12757812 6.56082031 -1.13015625 5.30914062 -1.1328125 4.01953125 C-1 1 -1 1 0 0 Z " fill="#254CE6" transform="translate(55,33)"/>
<path d="M0 0 C1.9375 0.75 1.9375 0.75 4 2 C4.33333333 3.33333333 4.66666667 4.66666667 5 6 C6.9837767 7.28436734 6.9837767 7.28436734 9 8 C9 8.66 9 9.32 9 10 C9.804375 10.268125 10.60875 10.53625 11.4375 10.8125 C12.283125 11.204375 13.12875 11.59625 14 12 C14.33 12.99 14.66 13.98 15 15 C15.99 15.33 16.98 15.66 18 16 C18 16.66 18 17.32 18 18 C13.02810627 16.52956932 10.28903599 13.64413167 6.8125 10 C6.27947266 9.4534375 5.74644531 8.906875 5.19726562 8.34375 C3.79223167 6.90160194 2.39561018 5.45126967 1 4 C0.34 3.34 -0.32 2.68 -1 2 C-0.67 1.34 -0.34 0.68 0 0 Z " fill="#F0650E" transform="translate(31,1)"/>
<path d="M0 0 C0.33 0 0.66 0 1 0 C1.33 6.27 1.66 12.54 2 19 C4.97 19.99 7.94 20.98 11 22 C11 22.33 11 22.66 11 23 C7.37 23 3.74 23 0 23 C0 15.41 0 7.82 0 0 Z " fill="#2431AC" transform="translate(50,33)"/>
<path d="M0 0 C0.94875 0.04125 1.8975 0.0825 2.875 0.125 C0.895 3.095 -1.085 6.065 -3.125 9.125 C-5.125 7.125 -5.125 7.125 -5.375 4.625 C-4.98192433 0.69424327 -3.8631953 0.15452781 0 0 Z " fill="#FEB60A" transform="translate(20.125,36.875)"/>
<path d="M0 0 C6.93 0.33 13.86 0.66 21 1 C17.00802941 2.99598529 15.37379905 3.27174678 11.0625 3.25 C10.04285156 3.25515625 9.02320312 3.2603125 7.97265625 3.265625 C4.94667796 2.99523535 2.74174353 2.27241136 0 1 C0 0.67 0 0.34 0 0 Z " fill="#1A51C8" transform="translate(56,53)"/>
<path d="M0 0 C2.31243792 -0.02685412 4.6249627 -0.04632841 6.9375 -0.0625 C8.22527344 -0.07410156 9.51304688 -0.08570313 10.83984375 -0.09765625 C14 0 14 0 15 1 C15.04080783 2.99958364 15.04254356 5.00045254 15 7 C14.79503906 6.35289063 14.59007813 5.70578125 14.37890625 5.0390625 C13.13792322 2.68629819 13.13792322 2.68629819 10.21484375 2.4609375 C9.13332031 2.43257812 8.05179688 2.40421875 6.9375 2.375 C4.95533692 2.31372029 2.972655 2.2033665 1 2 C0.67 1.34 0.34 0.68 0 0 Z " fill="#22BEF8" transform="translate(72,33)"/>
<path d="M0 0 C0.02693575 2.12493141 0.04636628 4.24995912 0.0625 6.375 C0.07410156 7.55835938 0.08570313 8.74171875 0.09765625 9.9609375 C0 13 0 13 -1 15 C-1.99 14.67 -2.98 14.34 -4 14 C-3.67 13.0925 -3.34 12.185 -3 11.25 C-1.80394277 7.92954193 -1.80394277 7.92954193 -2 4 C-2.66 3.67 -3.32 3.34 -4 3 C-1.125 0 -1.125 0 0 0 Z " fill="#B51BBA" transform="translate(29,3)"/>
<path d="M0 0 C-0.33 1.65 -0.66 3.3 -1 5 C-2.65 5.33 -4.3 5.66 -6 6 C-6 5.34 -6 4.68 -6 4 C-6.66 4 -7.32 4 -8 4 C-8 3.34 -8 2.68 -8 2 C-2.25 0 -2.25 0 0 0 Z " fill="#7717C1" transform="translate(24,19)"/>
<path d="M0 0 C1.32 0 2.64 0 4 0 C4 0.99 4 1.98 4 3 C4.66 3.33 5.32 3.66 6 4 C2.37 4 -1.26 4 -5 4 C-5 3.34 -5 2.68 -5 2 C-3.35 2 -1.7 2 0 2 C0 1.34 0 0.68 0 0 Z " fill="#581DC1" transform="translate(14,23)"/>
<path d="M0 0 C2.875 -0.125 2.875 -0.125 6 0 C6.66 0.66 7.32 1.32 8 2 C7 3 7 3 4.27734375 3.09765625 C2.62412109 3.08025391 2.62412109 3.08025391 0.9375 3.0625 C-0.16722656 3.05347656 -1.27195312 3.04445313 -2.41015625 3.03515625 C-3.69212891 3.01775391 -3.69212891 3.01775391 -5 3 C-5 2.67 -5 2.34 -5 2 C-3.35 2 -1.7 2 0 2 C0 1.34 0 0.68 0 0 Z " fill="#4C507F" transform="translate(6,93)"/>
<path d="M0 0 C3.375 4.5 3.375 4.5 4 8 C2.68 8.99 1.36 9.98 0 11 C0 7.37 0 3.74 0 0 Z " fill="#9D94E1" transform="translate(3,57)"/>
<path d="M0 0 C1.32 0 2.64 0 4 0 C3.21302675 3.41021743 2.12880057 6.68885166 1 10 C0.67 10 0.34 10 0 10 C0 6.7 0 3.4 0 0 Z " fill="#2557F1" transform="translate(55,33)"/>
<path d="M0 0 C2.45823172 3.68734758 3.01242616 6.69699971 4 11 C3.01 11.495 3.01 11.495 2 12 C-0.60018816 8.09971775 -0.15085514 4.52565431 0 0 Z " fill="#BFB9EE" transform="translate(4,52)"/>
<path d="M0 0 C-1.38877354 3.35620271 -2.91677965 5.07298728 -6 7 C-6.66 7 -7.32 7 -8 7 C-6.47663111 3.31852519 -4.31953005 0 0 0 Z " fill="#AC99E9" transform="translate(12,27)"/>
<path d="M0 0 C2.36449336 1.18224668 3.43426315 2.54096681 5.125 4.5625 C5.66382813 5.20316406 6.20265625 5.84382812 6.7578125 6.50390625 C7.16773438 6.99761719 7.57765625 7.49132812 8 8 C5 8 5 8 2.3125 5.6875 C0 3 0 3 0 0 Z " fill="#E25F2A" transform="translate(29,2)"/>
<path d="M0 0 C0.33 0 0.66 0 1 0 C1.1875 2.375 1.1875 2.375 1 5 C-2 7 -2 7 -4.1875 6.625 C-4.785625 6.41875 -5.38375 6.2125 -6 6 C-4 4 -2 2 0 0 Z " fill="#FE9714" transform="translate(24,40)"/>
<path d="M0 0 C0.99 0.33 1.98 0.66 3 1 C0.25 5.875 0.25 5.875 -2 7 C-2.125 4.625 -2.125 4.625 -2 2 C-1.34 1.34 -0.68 0.68 0 0 Z " fill="#FEC414" transform="translate(17,37)"/>
<path d="M0 0 C2.64 0 5.28 0 8 0 C8 0.66 8 1.32 8 2 C8.66 2.33 9.32 2.66 10 3 C2.25 2.25 2.25 2.25 0 0 Z " fill="#1D41C2" transform="translate(56,53)"/>
<path d="M0 0 C0 1.65 0 3.3 0 5 C-1.32 5 -2.64 5 -4 5 C-3.625 3.0625 -3.625 3.0625 -3 1 C-1 0 -1 0 0 0 Z " fill="#C51DD0" transform="translate(28,6)"/>
</svg>
